<svg xmlns="http://www.w3.org/2000/svg" enable-background="new 0 0 68 68" viewBox="0 0 68 68"><path fill="#FA8465" d="M27.69811,61.18274c-5.76571,5.76571-15.11049,5.7657-20.87621-0.00003
				c-2.88714-2.88714-4.3136-6.67115-4.32211-10.43807c0.00849-3.76691,1.43501-7.55098,4.32214-10.43811L18.1398,28.98866
				c1.98165-1.98165,4.39899-3.28862,6.94443-3.9036c1.86211-0.46124,3.80111-0.53808,5.69736-0.24769
				c3.01528,0.45275,5.91952,1.83652,8.23431,4.15132c2.31485,2.31485,3.69862,5.21909,4.15986,8.24287
				c-1.69126,0.73458-3.55336,0.93962-5.33007,0.63208c-0.29895-1.93901-1.20438-3.69862-2.60524-5.09949
				c-1.43502-1.43502-3.22883-2.32335-5.09943-2.6223c-1.78526-0.299-3.63881-0.0854-5.32152,0.64063
				c-1.05068,0.45269-2.04155,1.11897-2.90423,1.98165L10.59739,44.08201c-1.77671,1.77671-2.75048,4.15135-2.75043,6.66265
				c-0.00005,2.51129,0.97373,4.88594,2.75039,6.6626c3.67302,3.67302,9.65228,3.67303,13.32529,0.00002L35.24052,46.0894
				c0.85418-0.85418,1.51186-1.83646,1.9731-2.91278c1.89631,0.29045,3.83526,0.21355,5.69736-0.24769
				c-0.61498,2.54544-1.91335,4.95429-3.90355,6.92739L27.69811,61.18274z"/><path fill="#71C7E5" d="M61.16484,27.6989c2.89563-2.87853,4.32214-6.66259,4.33064-10.42951
				c-0.00851-3.78401-1.45207-7.56803-4.32216-10.43812c-5.76572-5.76573-15.1104-5.76574-20.87611-0.00003L28.97933,18.14912
				c-1.9817,1.9817-3.28012,4.3905-3.8951,6.93594c1.86211-0.46124,3.80111-0.53808,5.69736-0.24769
				c0.46129-1.07627,1.11902-2.0586,1.9732-2.91278l11.31787-11.31788c3.67296-3.67296,9.65222-3.67295,13.32518,0.00002
				c1.77671,1.77671,2.75049,4.13426,2.75044,6.66265c0.00005,2.51129-0.97372,4.88594-2.75038,6.6626L46.08005,35.24986
				c-0.86273,0.86273-1.85361,1.52901-2.90429,1.9817c-1.69126,0.73458-3.55336,0.93962-5.33007,0.63208
				c-1.86206-0.3075-3.65592-1.17878-5.09093-2.6138c-1.40082-1.40082-2.30625-3.17753-2.61374-5.10799
				c-1.78526-0.299-3.63881-0.0854-5.32152,0.64063c0.46124,3.00668,1.83646,5.91947,4.15981,8.24282
				c2.31485,2.31485,5.21908,3.69862,8.23431,4.15132c1.89631,0.29045,3.83526,0.21355,5.69736-0.24769
				c2.54549-0.61503,4.95428-1.91335,6.94453-3.9036L61.16484,27.6989z"/><line x1="43.917" x2="46.854" y1="50.174" y2="58.306" fill="#71C7E5"/><line x1="47.041" x2="52.576" y1="47.05" y2="52.585" fill="#71C7E5"/><line x1="50.165" x2="58.297" y1="43.927" y2="46.864" fill="#71C7E5"/><line x1="17.83" x2="9.698" y1="24.088" y2="21.15" fill="#71C7E5"/><line x1="20.954" x2="15.42" y1="20.964" y2="15.429" fill="#71C7E5"/><line x1="24.078" x2="21.141" y1="17.84" y2="9.708" fill="#71C7E5"/><path fill="#FFF" d="M62.63523,16.23005c-0.23145,0-0.43896-0.16113-0.48877-0.39697
				c-0.19238-0.9126-0.47511-1.80908-0.83936-2.66357c-0.1084-0.25439,0.00977-0.54785,0.26367-0.65625
				c0.25488-0.1084,0.54785,0.00977,0.65625,0.26367c0.38965,0.91455,0.69189,1.87354,0.89795,2.8501
				c0.05713,0.27002-0.11572,0.53516-0.38623,0.59229C62.70407,16.22663,62.66941,16.23005,62.63523,16.23005z"/><path fill="#414141" d="M39.94626,6.4737L28.62644,17.79353c-1.9068,1.9068-3.26465,4.28412-3.95209,6.88715
		c-2.59387,0.67834-4.97186,2.03583-6.88824,3.9527l-6.41992,6.41992c-0.19531,0.19531-0.19531,0.51172,0,0.70703
		s0.51172,0.19531,0.70703,0l6.41992-6.41992c5.54492-5.54492,14.57141-5.57813,20.17236-0.00098
		c2.05975,2.06946,3.41986,4.67523,3.95026,7.55707c-1.51978,0.58368-2.82904,0.70776-4.3407,0.51044
		c-0.3692-1.88208-1.29059-3.60205-2.68036-4.99231c-3.97339-3.9997-10.34241-3.73181-14.02832-0.00098L10.24704,43.73249
		c-3.80292,3.78101-3.92737,10.10138-0.00098,14.02783c3.86865,3.86865,10.15894,3.86938,14.02734,0
		C35.36106,46.43977,36.2858,46.31269,37.51218,43.72419c1.40863,0.17963,3.12299,0.16467,4.70068-0.13428
		c-1.62909,5.41644-4.96234,6.77063-14.86621,17.24316c-5.56104,5.55224-14.61084,5.55322-20.17285,0.00098
		c-5.55371-5.57391-5.5722-14.5824-0.00049-20.17334l0.66016-0.66016c0.19531-0.19531,0.19531-0.51172,0-0.70703
		s-0.51172-0.19531-0.70703,0l-0.66064,0.66064c-5.94434,5.9646-5.9613,15.60327,0.00098,21.58691
		c5.95203,5.94128,15.63477,5.94043,21.58691-0.00098c9.508-10.17108,13.61743-11.8913,15.26215-18.20709
		c2.599-0.67712,4.97992-2.03455,6.89801-3.95306l6.69971-6.71973c0.19482-0.19531,0.19434-0.51221-0.00098-0.70703
		c-0.19531-0.19434-0.51172-0.19434-0.70703,0.00098l-6.69922,6.71924c-5.55139,5.55139-14.60364,5.57001-20.17188,0.00049
		c-2.06757-2.07587-3.42822-4.68127-3.95135-7.55591c1.47601-0.56567,2.77527-0.71442,4.33295-0.51917
		c0.38129,1.90405,1.30566,3.62702,2.68872,5.00086c3.85657,3.8811,10.21832,3.85529,14.02832,0.00098l11.32031-11.32031
		c3.82343-3.82343,3.9043-10.10114,0-14.02686c-3.86426-3.86377-10.16113-3.86475-14.03711,0L32.40818,21.57136
		c-0.80322,0.79395-1.45117,1.70703-1.93018,2.71826c-1.63147-0.20923-3.35718-0.11908-4.69873,0.13428
		c0.6792-2.23242,1.89795-4.26709,3.5542-5.92334L40.65329,7.18074c5.56262-5.56262,14.57874-5.57324,20.15381-0.00928
		c0.00391,0.00439,0.0083,0.00879,0.0127,0.01318c5.53272,5.53265,5.6048,14.56995-0.00342,20.15869l-0.37012,0.37012
		c-0.19531,0.19531-0.19531,0.51172,0,0.70703s0.51172,0.19531,0.70703,0l0.36963-0.36963
		c5.96045-5.94025,5.9748-15.60388,0.00049-21.57715C55.56357,0.51386,45.90628,0.51264,39.94626,6.4737z M28.62644,39.38044
		c2.16333,2.16333,4.86896,3.58765,7.8501,4.16559c-1.11572,2.16925-1.96716,2.38257-12.91016,13.50726
		c-3.47833,3.47833-9.13538,3.47791-12.61328,0c-3.50897-3.51001-3.43903-9.19281,0-12.61279l11.32227-11.32178
		c0.64392-0.65143,1.37653-1.1825,2.17767-1.59741C25.04203,34.50593,26.46903,37.21394,28.62644,39.38044z M33.11228,34.89216
		c-1.14111-1.13275-1.90918-2.53674-2.29669-4.07843c1.53064,0.38818,2.93085,1.15961,4.07062,2.30695
		c1.14526,1.14526,1.91095,2.54443,2.28992,4.06732C35.63675,36.79402,34.23832,36.02613,33.11228,34.89216z M33.11325,22.28034
		l11.30957-11.31934c3.48486-3.47461,9.14844-3.47607,12.62256-0.00146c3.50781,3.52716,3.44098,9.17279,0.00097,12.61377
		L45.72409,34.89558c-0.6441,0.65167-1.37701,1.1828-2.17871,1.59778c-0.59564-2.99188-2.02161-5.70014-4.17285-7.86096
		c-2.17395-2.16443-4.88232-3.58826-7.85901-4.16473C31.92813,23.66249,32.45987,22.92658,33.11325,22.28034z"/><path fill="#414141" d="M58.33493 31.24909l1.40967-1.41992c.19434-.1958.19336-.51221-.00293-.70703-.19482-.19385-.51221-.19336-.70703.00293l-1.40967 1.41992c-.19434.1958-.19336.51221.00293.70703.09717.09668.22461.14502.35205.14502C58.10837 31.39704 58.23728 31.34773 58.33493 31.24909zM8.53611 38.5904c.09766.09766.22559.14648.35352.14648s.25586-.04883.35352-.14648l1.41992-1.41992c.19531-.19531.19531-.51172 0-.70703s-.51172-.19531-.70703 0l-1.41992 1.41992C8.34079 38.07869 8.34079 38.39509 8.53611 38.5904zM43.74704 49.70417c-.25977.09375-.39404.38037-.30029.64014l2.9375 8.13184c.09583.26465.38702.3927.64014.30029.25977-.09375.39404-.38037.30029-.64014l-2.9375-8.13184C44.29343 49.7447 44.00583 49.60994 43.74704 49.70417zM46.68747 46.69685c-.19531.19531-.19531.51172 0 .70703l5.53467 5.53467c.19531.19531.51172.19531.70703 0s.19531-.51172 0-.70703l-5.53467-5.53467C47.19919 46.50154 46.88279 46.50154 46.68747 46.69685zM49.6948 43.75642c-.09375.25977.04053.54639.30029.64014l8.13184 2.9375c.25311.09241.54431-.03571.64014-.30029.09375-.25977-.04053-.54639-.30029-.64014l-8.13184-2.9375C50.07663 43.36238 49.78855 43.49665 49.6948 43.75642zM9.22849 20.98005c-.09375.25977.04053.54639.30029.64014l8.13135 2.9375c.25311.09241.54431-.03571.64014-.30029.09375-.25977-.04053-.54639-.30029-.64014l-8.13135-2.9375C9.61032 20.58552 9.32224 20.72029 9.22849 20.98005zM15.06638 15.07575c-.19531.19531-.19531.51172 0 .70703l5.53418 5.53418c.19531.19531.51172.19531.70703 0s.19531-.51172 0-.70703l-5.53418-5.53418C15.5781 14.88044 15.26169 14.88044 15.06638 15.07575zM24.24802 18.30964c.25977-.09375.39404-.38037.30029-.64014l-2.9375-8.13135c-.09375-.25977-.37939-.39404-.64014-.30029-.25977.09375-.39404.38037-.30029.64014l2.9375 8.13135C23.70371 18.274 23.99491 18.40205 24.24802 18.30964z"/></svg>