
<svg width="422.263" height="90.631" viewBox="0 0 422.263 52.631" xmlns="http://www.w3.org/2000/svg"><g id="svgGroup" stroke-width="0" stroke-linejoin="miter" stroke-miterlimit="2" fill="#0c0939" stroke="#0c0939" fill-rule="evenodd" style="font-style:normal;font-weight:400;font-size:72px;line-height:1;font-family:Numans;font-variant-ligatures:none;text-align:center;text-anchor:middle"><path d="M 65.286 49.326 L 53.333 13.677 A 0.677 0.677 0 0 1 53.276 13.519 A 0.574 0.574 0 0 1 53.263 13.396 Q 53.263 12.939 53.931 12.939 L 58.817 12.939 A 1.573 1.573 0 0 1 59.225 12.988 Q 59.751 13.129 59.907 13.677 L 69.61 42.822 L 78.61 15.119 A 3.947 3.947 0 0 1 79.135 14.068 Q 79.95 12.939 81.493 12.939 L 83.673 12.939 Q 85.817 12.939 86.556 15.119 L 95.556 42.822 L 105.259 13.677 A 1.045 1.045 0 0 1 105.473 13.268 Q 105.762 12.939 106.349 12.939 L 111.235 12.939 Q 111.884 12.939 111.903 13.37 A 0.599 0.599 0 0 1 111.903 13.396 A 0.408 0.408 0 0 1 111.866 13.563 Q 111.841 13.62 111.798 13.677 L 99.845 49.326 A 6.447 6.447 0 0 1 99.566 49.969 Q 99.406 50.284 99.229 50.529 A 2.602 2.602 0 0 1 98.843 50.96 A 1.743 1.743 0 0 1 98.285 51.281 Q 97.768 51.47 96.997 51.47 L 94.466 51.47 Q 92.505 51.47 91.772 49.841 A 4.052 4.052 0 0 1 91.583 49.326 L 82.583 21.587 L 73.583 49.326 A 3.482 3.482 0 0 1 73.083 50.385 Q 72.454 51.258 71.294 51.429 A 4.081 4.081 0 0 1 70.7 51.47 L 68.169 51.47 Q 66.953 51.47 66.369 50.999 A 1.448 1.448 0 0 1 66.323 50.96 A 2.794 2.794 0 0 1 65.91 50.497 Q 65.731 50.251 65.566 49.935 A 7.025 7.025 0 0 1 65.286 49.326 Z M 182.673 37.794 L 187.208 37.794 A 0.861 0.861 0 0 1 187.651 37.906 Q 187.831 38.011 187.956 38.215 A 1.464 1.464 0 0 1 188.087 38.497 Q 190.914 46.912 201.915 47.459 A 31.611 31.611 0 0 0 203.485 47.497 A 29.219 29.219 0 0 0 207.145 47.284 Q 208.951 47.055 210.435 46.582 A 11.55 11.55 0 0 0 213.382 45.195 A 9.465 9.465 0 0 0 215.189 43.647 A 6.088 6.088 0 0 0 216.81 39.482 A 8.734 8.734 0 0 0 216.466 36.974 A 6.81 6.81 0 0 0 214.647 33.98 A 10.143 10.143 0 0 0 212.73 32.55 Q 210.802 31.415 207.903 30.594 A 32.333 32.333 0 0 0 207.88 30.587 L 195.259 27.001 A 26.084 26.084 0 0 1 190.196 25.008 Q 183.024 21.187 183.024 13.677 A 11.495 11.495 0 0 1 186.898 4.868 A 15.543 15.543 0 0 1 188.175 3.816 Q 192.641 0.508 199.738 0.069 A 36.192 36.192 0 0 1 201.974 0.001 Q 210.622 0.001 215.948 3.71 A 15.997 15.997 0 0 1 222.646 13.888 Q 222.786 14.767 221.907 14.767 L 217.372 14.767 A 0.803 0.803 0 0 1 216.685 14.419 Q 216.57 14.26 216.493 14.029 A 12.607 12.607 0 0 0 212.662 8.202 Q 210.343 6.268 206.933 5.513 A 22.306 22.306 0 0 0 202.114 5.029 A 25.159 25.159 0 0 0 198.638 5.254 Q 195.099 5.748 192.815 7.331 A 9.066 9.066 0 0 0 190.993 8.968 A 6.274 6.274 0 0 0 189.493 13.097 A 8.944 8.944 0 0 0 189.785 15.443 A 6.475 6.475 0 0 0 191.655 18.564 A 10.363 10.363 0 0 0 193.439 19.867 Q 195.425 21.039 198.493 21.939 L 211.114 25.56 A 25.533 25.533 0 0 1 216.148 27.528 Q 219.017 29.054 220.731 31.19 A 11.904 11.904 0 0 1 223.278 38.884 A 11.357 11.357 0 0 1 219.38 47.663 A 15.485 15.485 0 0 1 217.987 48.781 A 18.463 18.463 0 0 1 212.387 51.43 Q 209.972 52.136 207.098 52.401 A 39.389 39.389 0 0 1 203.485 52.56 A 37.348 37.348 0 0 1 197.593 52.124 Q 194.503 51.629 191.979 50.574 A 18.398 18.398 0 0 1 188.79 48.869 A 18.746 18.746 0 0 1 184.186 44.473 A 21.231 21.231 0 0 1 183.991 44.21 A 11.703 11.703 0 0 1 182.622 41.801 A 8.776 8.776 0 0 1 181.935 38.427 A 0.77 0.77 0 0 1 181.978 38.158 Q 182.104 37.82 182.597 37.796 A 1.591 1.591 0 0 1 182.673 37.794 Z M 141.786 50.767 L 141.786 1.794 A 1.021 1.021 0 0 1 141.823 1.506 Q 141.919 1.182 142.259 1.09 A 1.096 1.096 0 0 1 142.489 1.056 L 147.552 1.056 A 0.962 0.962 0 0 1 147.834 1.094 Q 148.255 1.223 148.255 1.794 L 148.255 29.497 L 151.876 29.497 A 10.256 10.256 0 0 0 159.94 25.843 A 14.458 14.458 0 0 0 161.228 24.119 L 167.767 13.677 Q 168.259 12.974 168.856 12.939 L 174.411 12.939 Q 175.441 12.939 174.964 13.724 A 2.196 2.196 0 0 1 174.903 13.818 L 168.048 24.822 Q 164.321 30.798 159.048 31.677 Q 163.562 32.343 167.243 37.034 A 26.16 26.16 0 0 1 168.786 39.236 L 175.923 50.591 Q 176.134 50.908 176.116 51.189 Q 176.1 51.454 175.473 51.469 A 3.231 3.231 0 0 1 175.396 51.47 L 169.876 51.47 A 0.993 0.993 0 0 1 169.361 51.318 Q 169.201 51.223 169.044 51.067 A 2.738 2.738 0 0 1 168.786 50.767 L 161.931 39.939 Q 158.508 34.56 152.655 34.56 A 12.787 12.787 0 0 0 152.579 34.56 L 148.255 34.56 L 148.255 50.767 A 1.012 1.012 0 0 1 148.22 51.045 Q 148.098 51.47 147.552 51.47 L 142.489 51.47 A 1.012 1.012 0 0 1 142.211 51.435 Q 141.786 51.314 141.786 50.767 Z M 234.071 50.767 L 234.071 1.794 Q 234.071 1.056 234.774 1.056 L 239.837 1.056 A 0.962 0.962 0 0 1 240.119 1.094 Q 240.54 1.223 240.54 1.794 L 240.54 17.263 Q 240.768 16.92 241.762 16.068 A 38.848 38.848 0 0 1 242.263 15.646 A 21.196 21.196 0 0 1 243.678 14.565 A 15.583 15.583 0 0 1 245.04 13.712 A 15.468 15.468 0 0 1 250.862 11.978 A 19.101 19.101 0 0 1 252.774 11.884 A 19.221 19.221 0 0 1 258.397 12.67 A 15.339 15.339 0 0 1 264.692 16.384 Q 269.333 20.884 269.333 28.794 L 269.333 50.767 A 1.012 1.012 0 0 1 269.298 51.045 Q 269.176 51.47 268.63 51.47 L 263.567 51.47 A 1.012 1.012 0 0 1 263.289 51.435 Q 262.864 51.314 262.864 50.767 L 262.864 28.794 Q 262.864 24.534 261.212 21.729 A 9.392 9.392 0 0 0 259.911 20.005 A 9.841 9.841 0 0 0 252.775 16.916 A 13.03 13.03 0 0 0 252.423 16.912 A 11.691 11.691 0 0 0 247.209 18.163 A 14.281 14.281 0 0 0 246.271 18.669 A 30.545 30.545 0 0 0 244.561 19.747 Q 242.854 20.911 241.911 21.974 Q 240.795 23.233 240.588 23.63 A 0.338 0.338 0 0 0 240.54 23.767 L 240.54 50.767 A 1.012 1.012 0 0 1 240.505 51.045 Q 240.383 51.47 239.837 51.47 L 234.774 51.47 A 1.012 1.012 0 0 1 234.496 51.435 Q 234.071 51.314 234.071 50.767 Z M 37.231 47.497 L 50.38 47.497 Q 50.966 47.497 51.087 47.962 A 1.088 1.088 0 0 1 51.118 48.236 L 51.118 51.822 Q 51.118 52.408 50.653 52.528 A 1.088 1.088 0 0 1 50.38 52.56 L 23.38 52.56 Q 13.114 52.56 6.558 45.564 Q 0.334 38.923 0.018 27.499 A 44.697 44.697 0 0 1 0.001 26.263 A 37.222 37.222 0 0 1 0.776 18.433 Q 1.862 13.385 4.471 9.575 A 21.629 21.629 0 0 1 6.558 6.98 A 21.82 21.82 0 0 1 22.127 0.029 A 29.311 29.311 0 0 1 23.397 0.001 A 24.741 24.741 0 0 1 31.682 1.337 A 21.38 21.38 0 0 1 40.237 6.98 Q 46.794 13.958 46.794 26.263 Q 46.794 40.607 37.231 47.497 Z M 329.134 62.615 L 329.134 13.677 A 1.021 1.021 0 0 1 329.171 13.389 Q 329.267 13.065 329.606 12.973 A 1.096 1.096 0 0 1 329.837 12.939 L 333.81 12.939 A 0.973 0.973 0 0 1 334.119 12.984 Q 334.424 13.087 334.532 13.419 A 1.211 1.211 0 0 1 334.583 13.677 L 335.251 17.615 Q 335.638 17.017 337.026 15.804 A 21.02 21.02 0 0 1 338.301 14.771 Q 338.92 14.311 339.512 13.953 A 12.635 12.635 0 0 1 339.681 13.853 A 13.812 13.812 0 0 1 345.849 11.932 A 16.926 16.926 0 0 1 347.134 11.884 A 18.546 18.546 0 0 1 353.552 12.956 A 16.301 16.301 0 0 1 359.808 17.105 A 16.825 16.825 0 0 1 363.671 23.897 Q 364.47 26.499 364.694 29.634 A 35.489 35.489 0 0 1 364.782 32.169 Q 364.782 39.474 361.966 44.262 A 15.916 15.916 0 0 1 359.667 47.287 A 17.137 17.137 0 0 1 348.629 52.456 A 23.383 23.383 0 0 1 346.396 52.56 A 27.285 27.285 0 0 1 340.964 52.015 Q 338.747 51.566 337.426 51.105 A 10.475 10.475 0 0 1 336.903 50.908 L 335.603 50.38 L 335.603 62.615 A 1.021 1.021 0 0 1 335.565 62.903 Q 335.47 63.227 335.13 63.319 A 1.096 1.096 0 0 1 334.899 63.353 L 329.837 63.353 Q 329.134 63.318 329.134 62.615 Z M 292.803 51.753 A 21.801 21.801 0 0 0 298.882 52.56 A 24.028 24.028 0 0 0 302.046 52.358 A 17.237 17.237 0 0 0 312.452 47.269 A 16.012 16.012 0 0 0 314.721 44.315 Q 316.338 41.613 317.048 38.112 A 30.026 30.026 0 0 0 317.603 32.152 A 34.637 34.637 0 0 0 317.536 29.985 Q 317.338 26.823 316.545 24.192 A 16.8 16.8 0 0 0 312.452 17.105 A 16.836 16.836 0 0 0 304.961 12.681 A 22.076 22.076 0 0 0 298.882 11.884 A 24.146 24.146 0 0 0 295.475 12.116 A 17.272 17.272 0 0 0 285.312 17.105 A 15.723 15.723 0 0 0 282.951 20.182 Q 281.39 22.833 280.703 26.264 A 29.989 29.989 0 0 0 280.161 32.152 A 34.727 34.727 0 0 0 280.225 34.283 Q 280.735 42.567 285.312 47.269 A 16.791 16.791 0 0 0 292.803 51.753 Z M 35.491 10.39 A 15.524 15.524 0 0 0 24.295 5.05 A 19.069 19.069 0 0 0 23.397 5.029 Q 16.138 5.029 11.304 10.39 A 16.975 16.975 0 0 0 7.874 16.427 Q 7.007 19 6.676 22.144 A 39.276 39.276 0 0 0 6.47 26.263 A 36.546 36.546 0 0 0 6.918 32.191 Q 7.943 38.408 11.304 42.136 A 15.524 15.524 0 0 0 22.499 47.477 A 19.069 19.069 0 0 0 23.397 47.497 Q 30.657 47.497 35.491 42.136 A 16.975 16.975 0 0 0 38.921 36.099 Q 39.787 33.526 40.119 30.382 A 39.276 39.276 0 0 0 40.325 26.263 A 36.546 36.546 0 0 0 39.876 20.336 Q 38.852 14.118 35.491 10.39 Z M 335.603 24.47 L 335.603 45.353 A 23.85 23.85 0 0 0 344.458 47.464 A 27.958 27.958 0 0 0 345.833 47.497 A 13.144 13.144 0 0 0 350.144 46.819 A 11.138 11.138 0 0 0 354.833 43.683 A 11.999 11.999 0 0 0 357.248 39.45 Q 358.278 36.428 358.278 32.275 A 29.106 29.106 0 0 0 357.985 27.992 Q 357.66 25.815 356.976 24.059 A 12.031 12.031 0 0 0 355.114 20.796 A 10.099 10.099 0 0 0 347.753 16.947 A 13.029 13.029 0 0 0 346.782 16.912 A 10.458 10.458 0 0 0 340.702 18.903 Q 339.223 19.932 337.84 21.494 A 20.895 20.895 0 0 0 337.606 21.763 Q 335.603 24.083 335.603 24.47 Z M 121.044 50.767 L 121.044 13.677 Q 121.044 12.939 121.747 12.939 L 126.774 12.939 Q 127.36 12.939 127.481 13.404 A 1.088 1.088 0 0 1 127.513 13.677 L 127.513 50.767 A 0.962 0.962 0 0 1 127.475 51.05 Q 127.345 51.47 126.774 51.47 L 121.747 51.47 A 1.012 1.012 0 0 1 121.469 51.435 Q 121.044 51.314 121.044 50.767 Z M 298.882 16.912 A 12.713 12.713 0 0 0 294.567 17.616 A 10.966 10.966 0 0 0 290.022 20.726 A 12 12 0 0 0 287.674 24.873 Q 287.054 26.683 286.802 28.904 A 28.713 28.713 0 0 0 286.63 32.134 Q 286.63 37.088 288.074 40.463 A 11.8 11.8 0 0 0 290.022 43.613 A 11.068 11.068 0 0 0 298.123 47.478 A 14.795 14.795 0 0 0 298.882 47.497 A 12.473 12.473 0 0 0 303.259 46.757 A 10.969 10.969 0 0 0 307.741 43.613 Q 310.379 40.593 310.966 35.331 A 28.867 28.867 0 0 0 311.134 32.134 A 27.214 27.214 0 0 0 310.835 27.958 Q 310.127 23.408 307.741 20.726 A 11.159 11.159 0 0 0 299.578 16.927 A 15.115 15.115 0 0 0 298.882 16.912 Z M 120.517 7.173 L 120.517 2.497 A 2.075 2.075 0 0 1 120.588 1.927 Q 120.771 1.287 121.424 1.118 A 2.124 2.124 0 0 1 121.958 1.056 L 126.634 1.056 Q 127.442 1.056 127.759 1.39 A 0.97 0.97 0 0 1 127.955 1.71 Q 128.067 1.999 128.075 2.433 A 3.647 3.647 0 0 1 128.075 2.497 L 128.075 7.173 Q 128.075 7.848 127.855 8.18 A 0.763 0.763 0 0 1 127.759 8.298 Q 127.474 8.583 126.793 8.611 A 3.764 3.764 0 0 1 126.634 8.615 L 121.958 8.615 A 2.982 2.982 0 0 1 121.568 8.591 Q 121.093 8.528 120.851 8.298 Q 120.541 8.005 120.518 7.29 A 3.659 3.659 0 0 1 120.517 7.173 Z" height="40" vector-effect="non-scaling-stroke"/></g></svg>